<mxfile host="app.diagrams.net" modified="2022-12-08T19:34:48.624Z" agent="5.0 (Windows NT 10.0; Win64; x64) AppleWebKit/537.36 (KHTML, like Gecko) Chrome/108.0.0.0 Safari/537.36" version="20.6.0" etag="AqfvMtNWctZFHMZsSoDZ" type="github">
  <diagram id="_BRnc6Xgz4SjPGTiseiZ" name="Página-1">
    <mxGraphModel dx="1550" dy="-791" grid="1" gridSize="10" guides="1" tooltips="1" connect="1" arrows="1" fold="1" page="1" pageScale="1" pageWidth="827" pageHeight="1169" math="0" shadow="0">
      <root>
        <mxCell id="0" />
        <mxCell id="1" parent="0" />
        <mxCell id="UyUG-7OpEGxQX-MlArJ5-1" value="UI App" style="html=1;" vertex="1" parent="1">
          <mxGeometry x="-37" y="1230" width="110" height="50" as="geometry" />
        </mxCell>
        <mxCell id="UyUG-7OpEGxQX-MlArJ5-2" value="" style="html=1;points=[];perimeter=orthogonalPerimeter;" vertex="1" parent="1">
          <mxGeometry x="13" y="1280" width="10" height="1060" as="geometry" />
        </mxCell>
        <mxCell id="UyUG-7OpEGxQX-MlArJ5-6" style="edgeStyle=orthogonalEdgeStyle;rounded=0;orthogonalLoop=1;jettySize=auto;html=1;dashed=1;endArrow=none;endFill=0;" edge="1" parent="1" source="UyUG-7OpEGxQX-MlArJ5-3">
          <mxGeometry relative="1" as="geometry">
            <mxPoint x="300" y="2340" as="targetPoint" />
            <Array as="points">
              <mxPoint x="315" y="2340" />
            </Array>
          </mxGeometry>
        </mxCell>
        <mxCell id="UyUG-7OpEGxQX-MlArJ5-3" value="Decodificador de&amp;nbsp;&lt;br&gt;profundidad" style="html=1;" vertex="1" parent="1">
          <mxGeometry x="260" y="1230" width="110" height="50" as="geometry" />
        </mxCell>
        <mxCell id="UyUG-7OpEGxQX-MlArJ5-7" style="edgeStyle=orthogonalEdgeStyle;rounded=0;orthogonalLoop=1;jettySize=auto;html=1;dashed=1;endArrow=none;endFill=0;startArrow=none;" edge="1" parent="1" source="UyUG-7OpEGxQX-MlArJ5-24">
          <mxGeometry relative="1" as="geometry">
            <mxPoint x="500" y="2340" as="targetPoint" />
            <Array as="points">
              <mxPoint x="495" y="2340" />
            </Array>
          </mxGeometry>
        </mxCell>
        <mxCell id="UyUG-7OpEGxQX-MlArJ5-4" value="decodificador de&lt;br&gt;&amp;nbsp;segmentación" style="html=1;" vertex="1" parent="1">
          <mxGeometry x="440" y="1230" width="110" height="50" as="geometry" />
        </mxCell>
        <mxCell id="UyUG-7OpEGxQX-MlArJ5-8" style="edgeStyle=orthogonalEdgeStyle;rounded=0;orthogonalLoop=1;jettySize=auto;html=1;dashed=1;endArrow=none;endFill=0;startArrow=none;" edge="1" parent="1" source="UyUG-7OpEGxQX-MlArJ5-22">
          <mxGeometry relative="1" as="geometry">
            <mxPoint x="655" y="2340" as="targetPoint" />
          </mxGeometry>
        </mxCell>
        <mxCell id="UyUG-7OpEGxQX-MlArJ5-5" value="decodificador de&lt;br&gt;mapa de&amp;nbsp;&lt;br&gt;inundación binaria" style="html=1;" vertex="1" parent="1">
          <mxGeometry x="600" y="1230" width="110" height="50" as="geometry" />
        </mxCell>
        <mxCell id="UyUG-7OpEGxQX-MlArJ5-9" style="edgeStyle=orthogonalEdgeStyle;rounded=0;orthogonalLoop=1;jettySize=auto;html=1;dashed=1;endArrow=none;endFill=0;" edge="1" parent="1" source="UyUG-7OpEGxQX-MlArJ5-10">
          <mxGeometry relative="1" as="geometry">
            <mxPoint x="160" y="2338" as="targetPoint" />
            <Array as="points">
              <mxPoint x="175" y="2338" />
            </Array>
          </mxGeometry>
        </mxCell>
        <mxCell id="UyUG-7OpEGxQX-MlArJ5-10" value="Aplicador de&amp;nbsp;&lt;br&gt;eventos" style="html=1;" vertex="1" parent="1">
          <mxGeometry x="120" y="1228" width="110" height="50" as="geometry" />
        </mxCell>
        <mxCell id="UyUG-7OpEGxQX-MlArJ5-13" value="" style="html=1;points=[];perimeter=orthogonalPerimeter;" vertex="1" parent="1">
          <mxGeometry x="170" y="1330" width="10" height="80" as="geometry" />
        </mxCell>
        <mxCell id="UyUG-7OpEGxQX-MlArJ5-14" value="sendFileDirectory()" style="html=1;verticalAlign=bottom;startArrow=oval;endArrow=block;startSize=8;rounded=0;exitX=1.129;exitY=0.049;exitDx=0;exitDy=0;exitPerimeter=0;" edge="1" target="UyUG-7OpEGxQX-MlArJ5-13" parent="1" source="UyUG-7OpEGxQX-MlArJ5-2">
          <mxGeometry relative="1" as="geometry">
            <mxPoint x="80" y="1380" as="sourcePoint" />
            <Array as="points">
              <mxPoint x="130" y="1330" />
            </Array>
          </mxGeometry>
        </mxCell>
        <mxCell id="UyUG-7OpEGxQX-MlArJ5-15" value="DispalyImages()" style="html=1;verticalAlign=bottom;startArrow=oval;startFill=1;endArrow=block;startSize=8;rounded=0;exitX=-0.3;exitY=1;exitDx=0;exitDy=0;exitPerimeter=0;entryX=1;entryY=0.125;entryDx=0;entryDy=0;entryPerimeter=0;" edge="1" parent="1" source="UyUG-7OpEGxQX-MlArJ5-13" target="UyUG-7OpEGxQX-MlArJ5-2">
          <mxGeometry x="-0.1679" width="60" relative="1" as="geometry">
            <mxPoint x="90" y="1430" as="sourcePoint" />
            <mxPoint x="30" y="1410" as="targetPoint" />
            <Array as="points">
              <mxPoint x="30" y="1410" />
            </Array>
            <mxPoint as="offset" />
          </mxGeometry>
        </mxCell>
        <mxCell id="UyUG-7OpEGxQX-MlArJ5-16" value="" style="html=1;points=[];perimeter=orthogonalPerimeter;" vertex="1" parent="1">
          <mxGeometry x="170" y="1450" width="10" height="30" as="geometry" />
        </mxCell>
        <mxCell id="UyUG-7OpEGxQX-MlArJ5-17" value="sendOutFileDirectory()" style="html=1;verticalAlign=bottom;startArrow=oval;endArrow=block;startSize=8;rounded=0;" edge="1" target="UyUG-7OpEGxQX-MlArJ5-16" parent="1">
          <mxGeometry relative="1" as="geometry">
            <mxPoint x="30" y="1450" as="sourcePoint" />
          </mxGeometry>
        </mxCell>
        <mxCell id="UyUG-7OpEGxQX-MlArJ5-18" value="" style="html=1;points=[];perimeter=orthogonalPerimeter;" vertex="1" parent="1">
          <mxGeometry x="170" y="1500" width="10" height="50" as="geometry" />
        </mxCell>
        <mxCell id="UyUG-7OpEGxQX-MlArJ5-19" value="execute()" style="html=1;verticalAlign=bottom;startArrow=oval;endArrow=block;startSize=8;rounded=0;exitX=0.7;exitY=0.208;exitDx=0;exitDy=0;exitPerimeter=0;" edge="1" target="UyUG-7OpEGxQX-MlArJ5-18" parent="1" source="UyUG-7OpEGxQX-MlArJ5-2">
          <mxGeometry relative="1" as="geometry">
            <mxPoint x="110" y="1500" as="sourcePoint" />
          </mxGeometry>
        </mxCell>
        <mxCell id="UyUG-7OpEGxQX-MlArJ5-20" value="" style="html=1;points=[];perimeter=orthogonalPerimeter;" vertex="1" parent="1">
          <mxGeometry x="310" y="1550" width="10" height="80" as="geometry" />
        </mxCell>
        <mxCell id="UyUG-7OpEGxQX-MlArJ5-21" value="callDephDecoder()" style="html=1;verticalAlign=bottom;startArrow=oval;endArrow=block;startSize=8;rounded=0;" edge="1" target="UyUG-7OpEGxQX-MlArJ5-20" parent="1" source="UyUG-7OpEGxQX-MlArJ5-18">
          <mxGeometry relative="1" as="geometry">
            <mxPoint x="250" y="1550" as="sourcePoint" />
          </mxGeometry>
        </mxCell>
        <mxCell id="UyUG-7OpEGxQX-MlArJ5-25" value="sendDephtData()" style="html=1;verticalAlign=bottom;endArrow=block;entryX=0;entryY=0;rounded=0;exitX=1.083;exitY=1.013;exitDx=0;exitDy=0;exitPerimeter=0;" edge="1" target="UyUG-7OpEGxQX-MlArJ5-24" parent="1" source="UyUG-7OpEGxQX-MlArJ5-20">
          <mxGeometry relative="1" as="geometry">
            <mxPoint x="420" y="1590" as="sourcePoint" />
          </mxGeometry>
        </mxCell>
        <mxCell id="UyUG-7OpEGxQX-MlArJ5-27" value="sendSegmentationdData()" style="html=1;verticalAlign=bottom;startArrow=oval;startFill=1;endArrow=block;startSize=8;rounded=0;entryX=-0.25;entryY=0.793;entryDx=0;entryDy=0;entryPerimeter=0;" edge="1" parent="1" target="UyUG-7OpEGxQX-MlArJ5-22">
          <mxGeometry width="60" relative="1" as="geometry">
            <mxPoint x="500" y="1680" as="sourcePoint" />
            <mxPoint x="560" y="1680" as="targetPoint" />
          </mxGeometry>
        </mxCell>
        <mxCell id="UyUG-7OpEGxQX-MlArJ5-24" value="" style="html=1;points=[];perimeter=orthogonalPerimeter;" vertex="1" parent="1">
          <mxGeometry x="490" y="1630" width="10" height="80" as="geometry" />
        </mxCell>
        <mxCell id="UyUG-7OpEGxQX-MlArJ5-28" value="" style="edgeStyle=orthogonalEdgeStyle;rounded=0;orthogonalLoop=1;jettySize=auto;html=1;dashed=1;endArrow=none;endFill=0;" edge="1" parent="1" source="UyUG-7OpEGxQX-MlArJ5-4" target="UyUG-7OpEGxQX-MlArJ5-24">
          <mxGeometry relative="1" as="geometry">
            <mxPoint x="500" y="2340" as="targetPoint" />
            <mxPoint x="495" y="1280" as="sourcePoint" />
            <Array as="points" />
          </mxGeometry>
        </mxCell>
        <mxCell id="UyUG-7OpEGxQX-MlArJ5-22" value="" style="html=1;points=[];perimeter=orthogonalPerimeter;" vertex="1" parent="1">
          <mxGeometry x="650" y="1600" width="10" height="100" as="geometry" />
        </mxCell>
        <mxCell id="UyUG-7OpEGxQX-MlArJ5-29" value="" style="edgeStyle=orthogonalEdgeStyle;rounded=0;orthogonalLoop=1;jettySize=auto;html=1;dashed=1;endArrow=none;endFill=0;" edge="1" parent="1" source="UyUG-7OpEGxQX-MlArJ5-5" target="UyUG-7OpEGxQX-MlArJ5-22">
          <mxGeometry relative="1" as="geometry">
            <mxPoint x="655" y="2340" as="targetPoint" />
            <mxPoint x="655" y="1280" as="sourcePoint" />
          </mxGeometry>
        </mxCell>
        <mxCell id="UyUG-7OpEGxQX-MlArJ5-30" value="sendDephtData()" style="html=1;verticalAlign=bottom;startArrow=circle;startFill=1;endArrow=open;startSize=6;endSize=8;rounded=0;" edge="1" parent="1">
          <mxGeometry width="80" relative="1" as="geometry">
            <mxPoint x="320" y="1599" as="sourcePoint" />
            <mxPoint x="646" y="1599" as="targetPoint" />
          </mxGeometry>
        </mxCell>
      </root>
    </mxGraphModel>
  </diagram>
</mxfile>
